<svg width="2388" height="663" viewBox="0 0 2388 663" fill="none" xmlns="http://www.w3.org/2000/svg">
<path d="M334.349 425.298C334.669 418.911 334.355 411.449 334.248 404.984C334.109 396.159 334.044 387.331 334.057 378.503L333.915 267.683C334.051 240.09 332.61 216.479 339.325 189.581C352.215 137.922 395.773 102.322 448.338 97.3412C477.972 94.5329 509.283 97.2872 539.196 96C538.351 114.769 538.859 136.946 538.836 155.872L538.662 261.157L538.639 298.811C538.632 311.494 538.655 324.271 537.499 336.91C531.293 408.069 498.36 474.24 445.333 522.097C438.995 527.882 432.206 533.599 425.065 538.361C417.839 535.577 408.399 535.648 401.154 531.838C371.885 516.444 359.35 483.466 347.042 454.858C342.856 445.13 337.58 435.036 334.349 425.298ZM418.92 318.713L418.94 446.803C418.998 461.624 418.859 476.392 419.04 491.213C419.134 498.989 419.704 506.373 419.937 514.036C425.971 508.756 431.662 505.162 437.994 499.322C444.705 493.084 451.096 486.506 457.14 479.623C459.616 476.797 462.468 473.061 464.828 470.468C502.281 419.403 517.354 381.95 519.688 318.37C490.186 318.276 460.685 318.334 431.186 318.545L418.92 318.713ZM418.104 183.419L462.368 183.503C481.484 183.596 500.814 183.891 519.908 183.252C520.261 160.615 520.16 137.973 519.607 115.34C505.622 115.19 490.037 114.51 476.198 114.936C458.147 115.392 444.255 114.377 430.924 128.297C413.679 146.299 419.911 162.768 418.104 183.419ZM449.422 196.504C439.681 196.582 428.237 196.966 418.635 196.717L418.577 225.904C418.609 231.37 418.878 237.96 418.713 243.292C442.012 242.482 466.768 243.149 490.209 243.034C500.18 243.014 510.154 242.911 520.125 242.724C519.824 227.512 520.212 212.105 519.931 196.77C496.794 196.554 472.51 196.068 449.422 196.504ZM465.816 257.037L434.721 257.454C429.946 257.533 423.53 257.326 418.885 257.868C419.024 273.05 418.655 289.18 418.609 304.479C435.99 303.737 455.803 304.077 473.375 304.142C488.856 304.161 504.599 303.747 519.937 303.831C519.943 288.697 520.248 272.632 519.584 257.577C501.666 257.168 483.741 256.988 465.816 257.037Z" fill="url(#paint0_linear_60_6)"/>
<path d="M66.7063 199.914C83.2852 199.581 99.8663 199.37 116.448 199.28C143.693 199.216 164.533 198.491 190.759 207.181C204.675 211.723 217.738 218.552 229.409 227.388C262.933 252.822 272.615 285.057 288.904 322.63L314.674 381.319C320.87 395.537 327.415 411.53 334.349 425.298C337.58 435.036 342.856 445.13 347.042 454.858C359.351 483.466 371.885 516.444 401.154 531.838C408.399 535.648 417.839 535.577 425.065 538.361L424.838 538.526C391.724 562.747 347.56 571.433 307.33 565.117C289.374 562.123 272.122 555.852 256.434 546.616C212.518 521.2 195.158 487.448 175.629 442.737L154.207 393.608C134.731 348.027 114.931 302.586 94.8077 257.287C88.9744 244.121 82.8222 231.097 76.3567 218.229C73.0783 211.56 71.1553 206.021 66.7063 199.914Z" fill="white"/>
<path d="M983.288 392.344L1097.51 171.92H1188.14L1031.43 474H930.424L773.72 171.92H864.344L978.568 392.344H983.288ZM1400.26 285.2L1493.24 171.92H1597.08L1437.55 366.384V474H1357.31V365.44L1198.24 171.92H1302.08L1395.54 285.2H1400.26ZM1816.2 392.344L1930.43 171.92H2021.05L1864.35 474H1763.34L1606.63 171.92H1697.26L1811.48 392.344H1816.2ZM2129.99 253.576L2082.32 345.616H2182.38L2134.71 253.576H2129.99ZM2081.85 171.92H2182.85L2339.56 474H2248.93L2222.5 423.496H2041.73L2015.77 474H1925.14L2081.85 171.92Z" fill="#FDF6F3"/>
<defs>
<linearGradient id="paint0_linear_60_6" x1="436.534" y1="96" x2="436.534" y2="538.361" gradientUnits="userSpaceOnUse">
<stop offset="0.658654" stop-color="#FFFBFA"/>
<stop offset="1" stop-color="#503E37"/>
</linearGradient>
</defs>
</svg>
