<svg width="2732" height="610" viewBox="0 0 2732 610" fill="none" xmlns="http://www.w3.org/2000/svg">
<path d="M306.288 296.344L420.512 75.92H511.136L354.432 378H253.424L96.72 75.92H187.344L301.568 296.344H306.288ZM723.259 189.2L816.243 75.92H920.083L760.547 270.384V378H680.307V269.44L521.243 75.92H625.083L718.539 189.2H723.259ZM1139.2 296.344L1253.43 75.92H1344.05L1187.35 378H1086.34L929.634 75.92H1020.26L1134.48 296.344H1139.2ZM1464.51 157.576L1416.84 249.616H1516.91L1469.23 157.576H1464.51ZM1416.37 75.92H1517.38L1674.08 378H1583.46L1557.03 327.496H1376.25L1350.29 378H1259.67L1416.37 75.92Z" fill="#0A0A0A"/>
<path d="M306.288 296.344L420.512 75.92H511.136L354.432 378H253.424L96.72 75.92H187.344L301.568 296.344H306.288ZM723.259 189.2L816.243 75.92H920.083L760.547 270.384V378H680.307V269.44L521.243 75.92H625.083L718.539 189.2H723.259ZM1139.2 296.344L1253.43 75.92H1344.05L1187.35 378H1086.34L929.634 75.92H1020.26L1134.48 296.344H1139.2ZM1464.51 157.576L1416.84 249.616H1516.91L1469.23 157.576H1464.51ZM1416.37 75.92H1517.38L1674.08 378H1583.46L1557.03 327.496H1376.25L1350.29 378H1259.67L1416.37 75.92Z" fill="url(#paint0_radial_82_24)" fill-opacity="0.2"/>
<path d="M1714.3 275.9C1704.04 275.9 1694.79 274.443 1686.56 271.53C1678.45 268.617 1671.49 264.437 1665.66 258.99C1659.96 253.543 1655.53 246.957 1652.36 239.23C1649.32 231.503 1647.8 222.827 1647.8 213.2C1647.8 203.573 1649.32 194.897 1652.36 187.17C1655.53 179.443 1659.96 172.857 1665.66 167.41C1671.49 161.963 1678.45 157.783 1686.56 154.87C1694.79 151.957 1704.04 150.5 1714.3 150.5H1739C1748.88 150.5 1757.81 151.767 1765.79 154.3C1773.9 156.833 1780.86 160.507 1786.69 165.32C1792.52 170.007 1797.14 175.833 1800.56 182.8C1804.11 189.767 1806.26 197.62 1807.02 206.36H1772.82C1771.55 198.633 1768.07 192.807 1762.37 188.88C1756.67 184.827 1748.94 182.8 1739.19 182.8H1715.06C1704.55 182.8 1696.38 185.46 1690.55 190.78C1684.85 196.1 1682 203.573 1682 213.2C1682 222.827 1684.85 230.3 1690.55 235.62C1696.38 240.94 1704.55 243.6 1715.06 243.6H1739.19C1748.94 243.6 1756.67 241.573 1762.37 237.52C1768.07 233.467 1771.55 227.64 1772.82 220.04H1807.02C1806.26 228.78 1804.11 236.633 1800.56 243.6C1797.14 250.567 1792.52 256.457 1786.69 261.27C1780.86 265.957 1773.9 269.567 1765.79 272.1C1757.81 274.633 1748.88 275.9 1739 275.9H1714.3ZM1880.88 185.27L1861.69 222.32H1901.97L1882.78 185.27H1880.88ZM1861.5 152.4H1902.16L1965.24 274H1928.76L1918.12 253.67H1845.35L1834.9 274H1798.42L1861.5 152.4ZM1968.1 152.4H2051.13C2061.14 152.4 2070.13 153.857 2078.11 156.77C2086.22 159.557 2093.12 163.61 2098.82 168.93C2104.52 174.25 2108.89 180.647 2111.93 188.12C2115.1 195.593 2116.68 203.953 2116.68 213.2C2116.68 232.833 2111.04 247.907 2099.77 258.42C2088.5 268.807 2072.28 274 2051.13 274H1968.1V152.4ZM2050.56 242.65C2061.71 242.65 2069.81 240.307 2074.88 235.62C2079.95 230.933 2082.48 223.46 2082.48 213.2C2082.48 202.94 2079.95 195.467 2074.88 190.78C2069.81 186.093 2061.52 183.75 2049.99 183.75H2000.4V242.65H2050.56ZM2190.56 185.27L2171.37 222.32H2211.65L2192.46 185.27H2190.56ZM2171.18 152.4H2211.84L2274.92 274H2238.44L2227.8 253.67H2155.03L2144.58 274H2108.1L2171.18 152.4Z" fill="#0A0A0A"/>
<path d="M214.288 514.848L324.736 302.92H409.696V605H329.456V476.616H324.736L257.712 605H166.144L99.12 476.616H94.4V605H14.16V302.92H99.12L209.568 514.848H214.288ZM433.503 455.848C433.503 431.304 437.279 409.435 444.831 390.24C452.383 370.731 463.239 354.211 477.399 340.68C491.873 326.835 509.337 316.293 529.791 309.056C550.244 301.819 573.215 298.2 598.703 298.2H660.062C686.495 298.2 710.095 301.819 730.863 309.056C751.945 316.293 769.724 326.835 784.199 340.68C798.988 354.211 810.316 370.731 818.183 390.24C826.049 409.435 829.983 431.304 829.983 455.848C829.983 480.077 826.049 501.789 818.183 520.984C810.631 539.864 799.617 555.912 785.143 569.128C770.668 582.344 752.889 592.413 731.807 599.336C710.724 606.259 686.809 609.72 660.062 609.72H598.703C572.9 609.72 549.772 606.259 529.319 599.336C508.865 592.099 491.559 581.872 477.399 568.656C463.239 555.44 452.383 539.392 444.831 520.512C437.279 501.317 433.503 479.763 433.503 455.848ZM518.463 455.376C518.463 479.291 525.385 497.699 539.231 510.6C553.391 523.187 573.844 529.48 600.591 529.48H660.062C672.649 529.48 684.135 528.221 694.519 525.704C704.903 522.872 713.871 518.467 721.423 512.488C728.975 506.509 734.796 498.8 738.887 489.36C742.977 479.92 745.023 468.592 745.023 455.376C745.023 442.16 742.977 430.832 738.887 421.392C734.796 411.637 728.975 403.613 721.423 397.32C713.871 390.712 704.903 385.992 694.519 383.16C684.135 380.013 672.649 378.44 660.062 378.44H600.591C574.473 378.44 554.177 385.205 539.703 398.736C525.543 411.952 518.463 430.832 518.463 455.376ZM1049.05 514.848L1159.49 302.92H1244.45V605H1164.21V476.616H1159.49L1092.47 605H1000.9L933.878 476.616H929.158V605H848.918V302.92H933.878L1044.33 514.848H1049.05ZM1272.98 302.92H1575.06V380.8H1353.22V414.784H1531.64V492.664H1353.22V527.12H1575.06V605H1272.98V302.92ZM1869.85 491.248H1874.57V302.92H1954.81V605H1869.85L1681.52 416.672H1676.8V605H1596.56V302.92H1681.52L1869.85 491.248ZM2106.01 380.8H1973.85V302.92H2318.41V380.8H2186.25V605H2106.01V380.8ZM2325.65 455.848C2325.65 431.304 2329.43 409.435 2336.98 390.24C2344.53 370.731 2355.39 354.211 2369.55 340.68C2384.02 326.835 2401.49 316.293 2421.94 309.056C2442.39 301.819 2465.36 298.2 2490.85 298.2H2552.21C2578.64 298.2 2602.24 301.819 2623.01 309.056C2644.09 316.293 2661.87 326.835 2676.35 340.68C2691.14 354.211 2702.46 370.731 2710.33 390.24C2718.2 409.435 2722.13 431.304 2722.13 455.848C2722.13 480.077 2718.2 501.789 2710.33 520.984C2702.78 539.864 2691.77 555.912 2677.29 569.128C2662.82 582.344 2645.04 592.413 2623.95 599.336C2602.87 606.259 2578.96 609.72 2552.21 609.72H2490.85C2465.05 609.72 2441.92 606.259 2421.47 599.336C2401.01 592.099 2383.71 581.872 2369.55 568.656C2355.39 555.44 2344.53 539.392 2336.98 520.512C2329.43 501.317 2325.65 479.763 2325.65 455.848ZM2410.61 455.376C2410.61 479.291 2417.53 497.699 2431.38 510.6C2445.54 523.187 2465.99 529.48 2492.74 529.48H2552.21C2564.8 529.48 2576.28 528.221 2586.67 525.704C2597.05 522.872 2606.02 518.467 2613.57 512.488C2621.12 506.509 2626.94 498.8 2631.03 489.36C2635.13 479.92 2637.17 468.592 2637.17 455.376C2637.17 442.16 2635.13 430.832 2631.03 421.392C2626.94 411.637 2621.12 403.613 2613.57 397.32C2606.02 390.712 2597.05 385.992 2586.67 383.16C2576.28 380.013 2564.8 378.44 2552.21 378.44H2492.74C2466.62 378.44 2446.33 385.205 2431.85 398.736C2417.69 411.952 2410.61 430.832 2410.61 455.376Z" fill="#F64603"/>
<defs>
<radialGradient id="paint0_radial_82_24" cx="0" cy="0" r="1" gradientUnits="userSpaceOnUse" gradientTransform="translate(852.5 671) rotate(-26.4403) scale(924.169 302.043)">
<stop stop-color="#F64603"/>
<stop offset="1"/>
</radialGradient>
</defs>
</svg>
